PathFileType	4	(X/Y/Z)	C:\Users\Balu\Nextcloud\Documents\MA\Daten\C3D\P03\2016 - pre\Static01\marker_experimental.trc
DataRate	CameraRate	NumFrames	NumMarkers	Units	OrigDataRate	OrigDataStartFrame	OrigNumFrames
150.000000	150.000000	4	104	mm	150.000000	112	150
Frame#	Time	LFHD			LBHD			RFHD			RBHD			C7			T10			CLAV			STRN			RBAK			LSHO			LUPA			LELB			LFRA			LWRB			LWRA			LFIN			RSHO			RUPA			RELB			RFRA			RWRB			RWRA			RFIN			SACR			LASI			RASI			LT1			LT2			LT3			LS1			LS2			LS3			LHEE			LTOE			RT1			RT2			RT3			RS1			RS2			RS3			RHEE			RTOE			LKNE			LKNM			LANK			LANM			RKNM			RKNE			RANM			RANK			SACO			SACA			SACL			SACP			LKJC			RKJC			LAJC			RAJC			LMMA			RMMA			LTHI			RTHI			LTIB			RTIB			funktRKJC			funktLKJC			funktRHIP			funktLHIP			LHJC			RHJC			LPelvisAngles			RPelvisAngles			LFootProgressAngles			RFootProgressAngles			LHipAngles			RHipAngles			LKneeAngles			RKneeAngles			LAnkleAngles			RAnkleAngles			LFFootAngles			RFFootAngles			LAbsAnkleAngle			RAbsAnkleAngle			RNeckAngles			LNeckAngles			RSpineAngles			LSpineAngles			LShoulderAngles			LElbowAngles			LWristAngles			RShoulderAngles			RElbowAngles			RWristAngles			RThoraxAngles			LThoraxAngles			RHeadAngles			LHeadAngles			LNormalisedGRF			RNormalisedGRF			LGroundReactionForce			RGroundReactionForce			LGRF			RGRF			
		X1	Y1	Z1	X2	Y2	Z2	X3	Y3	Z3	X4	Y4	Z4	X5	Y5	Z5	X6	Y6	Z6	X7	Y7	Z7	X8	Y8	Z8	X9	Y9	Z9	X10	Y10	Z10	X11	Y11	Z11	X12	Y12	Z12	X13	Y13	Z13	X14	Y14	Z14	X15	Y15	Z15	X16	Y16	Z16	X17	Y17	Z17	X18	Y18	Z18	X19	Y19	Z19	X20	Y20	Z20	X21	Y21	Z21	X22	Y22	Z22	X23	Y23	Z23	X24	Y24	Z24	X25	Y25	Z25	X26	Y26	Z26	X27	Y27	Z27	X28	Y28	Z28	X29	Y29	Z29	X30	Y30	Z30	X31	Y31	Z31	X32	Y32	Z32	X33	Y33	Z33	X34	Y34	Z34	X35	Y35	Z35	X36	Y36	Z36	X37	Y37	Z37	X38	Y38	Z38	X39	Y39	Z39	X40	Y40	Z40	X41	Y41	Z41	X42	Y42	Z42	X43	Y43	Z43	X44	Y44	Z44	X45	Y45	Z45	X46	Y46	Z46	X47	Y47	Z47	X48	Y48	Z48	X49	Y49	Z49	X50	Y50	Z50	X51	Y51	Z51	X52	Y52	Z52	X53	Y53	Z53	X54	Y54	Z54	X55	Y55	Z55	X56	Y56	Z56	X57	Y57	Z57	X58	Y58	Z58	X59	Y59	Z59	X60	Y60	Z60	X61	Y61	Z61	X62	Y62	Z62	X63	Y63	Z63	X64	Y64	Z64	X65	Y65	Z65	X66	Y66	Z66	X67	Y67	Z67	X68	Y68	Z68	X69	Y69	Z69	X70	Y70	Z70	X71	Y71	Z71	X72	Y72	Z72	X73	Y73	Z73	X74	Y74	Z74	X75	Y75	Z75	X76	Y76	Z76	X77	Y77	Z77	X78	Y78	Z78	X79	Y79	Z79	X80	Y80	Z80	X81	Y81	Z81	X82	Y82	Z82	X83	Y83	Z83	X84	Y84	Z84	X85	Y85	Z85	X86	Y86	Z86	X87	Y87	Z87	X88	Y88	Z88	X89	Y89	Z89	X90	Y90	Z90	X91	Y91	Z91	X92	Y92	Z92	X93	Y93	Z93	X94	Y94	Z94	X95	Y95	Z95	X96	Y96	Z96	X97	Y97	Z97	X98	Y98	Z98	X99	Y99	Z99	X100	Y100	Z100	X101	Y101	Z101	X102	Y102	Z102	X103	Y103	Z103	X104	Y104	Z104	

113	0.7466666666666667	-1142.150146484375	1435.907104492188	-390.5221557617186	-1003.207702636719	1419.582275390625	-366.840118408203	-1146.480346679688	1437.042114257812	-506.6647644042968	-993.1915283203125	1420.454345703125	-515.4188232421874	-967.1968994140625	1273.632202148438	-446.3876953124999	-915.0211181640625	1094.756713867188	-444.1110229492187	-1097.200073242188	1209.760864257812	-432.0999755859374	-1128.630859375	1156.28076171875	-427.3787841796874	-933.0510864257812	1175.677490234375	-542.9069213867186	-1043.009399414062	1262.706420898438	-315.5461730957031	-979.2241821289062	1047.692626953125	-219.2368927001953	-968.3414306640625	974.5372314453125	-189.9002532958984	-984.34814453125	891.997314453125	-145.845474243164	-1029.699584960938	772.4751586914062	-89.72728729248043	-1085.357421875	776.986572265625	-127.4374008178711	-1116.36767578125	719.5391235351562	-82.37956237792964	-1061.29443359375	1247.639770507812	-564.5592651367186	-1049.41650390625	1073.423095703125	-652.2251586914061	-1026.73876953125	954.4739379882812	-704.7925415039061	-1086.4990234375	824.91064453125	-756.2440185546875	-1098.084106445312	744.6094360351562	-775.5535888671875	-1140.4765625	740.8362426757812	-723.222412109375	-1181.739868164062	693.1746215820312	-768.0062255859375	-915.1027221679688	874.78271484375	-428.5787353515624	-1072.054931640625	870.615234375	-278.1000671386718	-1122.424560546875	876.1836547851562	-521.5111083984375	-1128.260498046875	585.9920654296875	-242.2490692138672	-1079.701171875	474.2008056640625	-229.5204925537109	-1203.1220703125	531.6553344726562	-275.7545776367187	-1033.1435546875	217.0430297851563	-282.0945129394531	-950.2413330078125	148.6560821533203	-342.1629333496094	-1062.009155273438	131.4951477050782	-254.0188598632812	-973.7589111328125	41.80792236328127	-367.9380493164062	-1083.037231445312	41.30332565307619	-262.1383666992188	-1132.963012695312	605.7516479492188	-592.2685546875	-1057.731201171875	506.7434387207032	-585.2189331054688	-1199.050170898438	533.3832397460938	-583.0075073242188	-1091.416259765625	266.0286254882813	-587.1181640625	-982.9962158203125	217.2893676757813	-562.1487426757812	-1118.066772460938	175.5245208740235	-582.328125	-981.8571166992188	44.98735427856448	-500.0402526855469	-1123.4052734375	41.89088058471683	-570.3867797851562	-1147.854736328125	432.5512390136719	-267.0195007324219	-1163.906860351562	421.6087646484375	-366.6366577148438	-994.133544921875	49.59733581542971	-304.78173828125	-1044.829711914062	47.25610733032229	-356.7976989746094	-1167.840698242188	423.1027526855469	-466.1627807617188	-1167.49365234375	438.7482299804688	-568.77978515625	-1062.764526367188	52.74843597412112	-490.5005798339844	-1019.144348144531	47.6824989318848	-552.1943969726562	-983.6261596679688	874.3934326171875	-423.2932434082031	-989.3068237304688	874.34375	-422.1188659667968	-982.450927734375	874.2635498046875	-417.6140136718749	-983.8496704101562	932.3869018554688	-421.9206542968749	-1155.880859375	427.0800170898438	-316.8280639648438	-1167.667114257812	430.9254760742188	-517.4712524414062	-1019.481689453125	48.42671966552737	-330.7897033691406	-1040.954467773438	50.21546936035159	-521.3474731445312	-1044.829711914062	47.25610733032229	-356.7976989746094	-1062.764526367188	52.74843597412112	-490.5005798339844	-1083.79443359375	611.1118774414062	-224.2226867675781	-1117.102661132812	623.1422119140625	-602.4828491210938	-1008.8544921875	243.8563995361328	-241.9454956054687	-1041.203369140625	243.501937866211	-613.5803833007812	0	0	0	0	0	0	0	0	0	0	0	0	-1043.678588867188	782.2974853515625	-353.5522766113281	-1066.638671875	784.0780029296875	-467.2640686035156	0.2208579331636429	-11.68322467803955	1.356172919273376	0.2208579331636429	11.68322467803955	-1.356172919273376	0.2562929689884186	-44.0702018737793	-13.01582717895508	1.234322547912598	-26.41732406616211	-9.306699752807619	18.7861442565918	4.745308876037598	3.243350505828858	14.5428524017334	-9.566282272338867	9.581843376159668	38.00428771972656	-33.89789581298828	-2.282459974288943	34.37295150756836	-30.30656051635742	-7.106647014617922	15.34983253479004	-2.58955454826355	-1.286764979362488	15.14009475708008	5.107452392578125	0.4111883342266086	-4.721135596077672e-16	-1.590277359294755e-15	-2.385416091881692e-15	2.186631435204737e-15	1.125914659857812e-31	-1.838758180140948e-15	15.17589473724365	0	0	15.01049518585205	0	0	-11.60153961181641	8.276167869567871	1.693513870239258	-11.60153961181641	-8.276167869567871	-1.693513870239258	4.58228874206543	6.525246143341064	-3.507068395614624	4.58228874206543	-6.525246143341064	3.507068395614624	-9.836616516113281	-10.83748054504394	-18.60107231140137	39.39183807373047	4.198332220067824e-13	2.385416091881718e-15	16.27719879150391	129.8810729980469	13.5168743133545	-8.078010559082031	1.376828789711	-25.02024269104004	36.50382614135742	-4.993470914538278e-13	7.95138679647347e-16	19.17303276062012	132.7796020507812	0.6134587526321492	5.101911067962646	5.313775062561035	1.718227624893189	5.101911067962646	-5.313775062561035	-1.718227624893189	6.396994590759277	-2.906087636947632	-0.5688015818595888	6.396994590759277	2.906087636947632	0.5688015818595888	0	0	0	0	0	0	0	0	0	0	0	0	0	0	0	0	0	0	
114	0.7533333333333334	-1142.177368164062	1435.854614257812	-390.5982360839843	-1003.234375	1419.511596679688	-366.9080810546874	-1146.506713867188	1437.005981445312	-506.7318725585936	-993.2113037109375	1420.393798828125	-515.4871826171874	-967.165771484375	1273.607177734375	-446.3380737304687	-914.9830932617188	1094.710205078125	-443.9387512207031	-1097.154174804688	1209.692138671875	-432.1650390624999	-1128.583374023438	1156.192626953125	-427.4378967285156	-932.9016723632812	1175.565063476562	-542.7689819335936	-1043.121704101562	1262.7001953125	-315.5698852539062	-979.2469482421875	1047.71728515625	-219.1863098144531	-968.3474731445312	974.5632934570312	-189.8127288818359	-984.4656982421875	892.01123046875	-145.7732696533203	-1029.903076171875	772.5802001953125	-89.60102844238277	-1085.494140625	777.0582885742188	-127.4417266845703	-1116.6083984375	719.6616821289062	-82.39631652832027	-1061.106567382812	1247.50927734375	-564.6306762695311	-1049.202270507812	1073.27099609375	-652.2330932617186	-1026.644897460938	954.2754516601562	-704.7209472656249	-1086.385498046875	824.7179565429688	-756.163818359375	-1097.94189453125	744.4183959960938	-775.4606323242188	-1140.298828125	740.6036987304688	-723.126220703125	-1181.501220703125	692.8477783203125	-767.8372802734375	-915.2033081054688	874.8112182617188	-428.5906066894531	-1072.122314453125	870.536376953125	-278.0128173828124	-1122.6005859375	876.1571044921875	-521.4226684570312	-1128.340454101562	585.9461059570312	-242.2473907470703	-1079.771728515625	474.1435546875	-229.5354919433593	-1203.19091796875	531.6156005859375	-275.7870178222656	-1033.2109375	217.0220489501953	-282.10302734375	-950.2943725585938	148.6417999267578	-342.1629028320312	-1062.076904296875	131.463607788086	-254.0431518554688	-973.764892578125	41.80963134765627	-367.9517211914062	-1083.059814453125	41.31512451171876	-262.1660766601562	-1132.975952148438	605.7361450195312	-592.285888671875	-1057.712036132812	506.7614440917969	-585.1536254882812	-1199.042236328125	533.3450317382812	-583.0860595703125	-1091.409057617188	266.0280456542969	-587.1427612304688	-983.023681640625	217.296859741211	-562.1649780273438	-1118.072265625	175.5190582275391	-582.3470458984375	-981.8583374023438	44.98684692382815	-500.03076171875	-1123.406127929688	41.90066528320316	-570.3799438476562	-1147.933837890625	432.5233764648438	-267.0404663085938	-1163.938598632812	421.5784912109375	-366.6543579101562	-994.1527709960938	49.60765457153322	-304.8089904785156	-1044.850463867188	47.22166442871096	-356.8198852539062	-1167.925415039062	423.0787658691407	-466.2078247070312	-1167.496948242188	438.7398986816407	-568.8158569335938	-1062.764770507812	52.75333404541018	-490.4913024902344	-1019.138793945312	47.69001388549808	-552.189208984375	-983.7582397460938	874.3927001953125	-423.2526855468749	-989.4384155273438	874.3403930664062	-422.0759277343749	-982.58056640625	874.2615966796875	-417.5739746093749	-984.0042114257812	932.3856811523438	-421.8627624511718	-1155.936279296875	427.0509338378906	-316.847412109375	-1167.711181640625	430.9093322753907	-517.5118408203125	-1019.501586914062	48.41465759277346	-330.814453125	-1040.951782226562	50.22167587280276	-521.3402709960938	-1044.850463867188	47.22166442871096	-356.8198852539062	-1062.764770507812	52.75333404541018	-490.4913024902344	-1083.908203125	611.07421875	-224.2127990722656	-1117.098388671875	623.1273803710938	-602.4746704101562	-1008.876831054688	243.8489074707032	-241.9849090576172	-1041.222045898438	243.4943084716797	-613.593505859375	0	0	0	0	0	0	0	0	0	0	0	0	-1043.744995117188	782.2523803710938	-353.5137329101562	-1066.75341796875	784.0573120117188	-467.2153625488281	0.2429381906986237	-11.70716381072998	1.373157739639282	0.2429381906986237	11.70716381072998	-1.373157739639282	0.2363947480916977	-44.06756973266602	-13.03409290313721	1.231584191322327	-26.4166316986084	-9.305912017822267	18.8101863861084	4.797652721405029	3.238782644271851	14.55023384094238	-9.636429786682129	9.587985992431641	38.00704956054688	-33.93531036376953	-2.291403055191042	34.37498092651367	-30.26363945007324	-7.101422786712648	15.36871147155762	-2.578712463378906	-1.285454630851746	15.15234088897705	5.108017444610596	0.4116901457309726	-1.987846699118444e-16	6.79732914489101e-31	-1.110088092276659e-14	3.975693398236888e-16	-1.445430996267681e-31	2.360567956857513e-15	15.18530654907227	0	0	15.02315330505371	0	0	-11.61247730255127	8.223567962646484	1.729940056800843	-11.61247730255127	-8.223567962646484	-1.729940056800843	4.560577392578125	6.605777740478516	-3.54874300956726	4.560577392578125	-6.605777740478516	3.54874300956726	-9.875741958618164	-10.84547996520996	-18.58204078674316	39.44910049438477	8.126317002123129e-13	-2.385416091881642e-15	16.29263687133789	129.9502868652344	13.53778553009034	-8.034754753112793	1.404389858245851	-25.03310585021973	36.46667861938477	-9.907427525948642e-13	-3.180554718589571e-15	19.11559867858887	132.8175506591797	0.6988850235939107	5.103093147277832	5.258716106414795	1.749473571777344	5.103093147277832	-5.258716106414795	-1.749473571777344	6.404767036437988	-2.907308101654053	-0.5748635530471804	6.404767036437988	2.907308101654053	0.5748635530471804	0	0	0	0	0	0	0	0	0	0	0	0	0	0	0	0	0	0	
115	0.76	-1142.193115234375	1435.802856445312	-390.6737365722655	-1003.247680664062	1419.441284179688	-366.985382080078	-1146.525634765625	1436.971435546875	-506.7985534667968	-993.2236328125	1420.332885742188	-515.5621337890624	-967.1285400390625	1273.582641601562	-446.2948303222656	-914.94970703125	1094.659790039062	-443.7633056640624	-1097.10498046875	1209.626342773438	-432.2337036132812	-1128.529663085938	1156.10302734375	-427.5015869140624	-932.7420654296875	1175.447143554688	-542.6284790039061	-1043.232421875	1262.692993164062	-315.6024169921874	-979.2794799804688	1047.743896484375	-219.1252441406249	-968.3692626953125	974.5956420898438	-189.7101593017578	-984.5498657226562	892.0736694335938	-145.6476287841796	-1030.1025390625	772.6812133789062	-89.46717834472652	-1085.644775390625	777.1337890625	-127.4422149658203	-1116.836059570312	719.7818603515625	-82.39533233642574	-1060.925170898438	1247.365234375	-564.7150878906249	-1048.99462890625	1073.099853515625	-652.2387084960936	-1026.562622070312	954.0612182617188	-704.6499023437499	-1086.306274414062	824.5138549804688	-756.1005859375	-1097.835205078125	744.2197875976562	-775.3859252929688	-1140.158935546875	740.3748779296875	-723.0475463867188	-1181.314208984375	692.5338134765625	-767.6990356445312	-915.302490234375	874.8450317382812	-428.5976867675781	-1072.190551757812	870.4581298828125	-277.9175109863281	-1122.7841796875	876.1343383789062	-521.3255004882812	-1128.415771484375	585.900634765625	-242.2464752197265	-1079.829956054688	474.0959777832031	-229.5650482177734	-1203.257568359375	531.5751342773438	-275.8177795410156	-1033.276123046875	217.0060119628907	-282.1138000488281	-950.3544311523438	148.6315155029297	-342.1669616699219	-1062.14013671875	131.436767578125	-254.0671997070312	-973.7709350585938	41.81309890747072	-367.964111328125	-1083.0830078125	41.32689285278322	-262.1929016113281	-1132.984130859375	605.7207641601562	-592.3010864257812	-1057.686645507812	506.7783203125001	-585.0820922851562	-1199.030151367188	533.3123779296875	-583.1624755859375	-1091.3974609375	266.0266418457032	-587.1658325195312	-983.0479736328125	217.305892944336	-562.1768798828125	-1118.079467773438	175.5133361816407	-582.364501953125	-981.8580322265625	44.98627090454104	-500.0197448730469	-1123.406616210938	41.91147994995121	-570.3701171875	-1148	432.5031127929688	-267.0681762695312	-1163.963134765625	421.5576171875	-366.6836547851562	-994.1712646484375	49.61925125122072	-304.83349609375	-1044.869873046875	47.18818283081057	-356.841064453125	-1168.008178710938	423.0562133789063	-466.2538452148438	-1167.496704101562	438.7341308593751	-568.8538208007812	-1062.763671875	52.75550460815433	-490.4794616699219	-1019.131530761719	47.69958496093754	-552.1817626953125	-983.8950805664062	874.39599609375	-423.2066955566406	-989.57470703125	874.3410034179688	-422.0274353027343	-982.71484375	874.2635498046875	-417.5285644531249	-984.1641235351562	932.3883666992188	-421.7980957031249	-1155.981567382812	427.0303649902344	-316.8759155273438	-1167.75244140625	430.8951721191407	-517.5538330078125	-1019.5205078125	48.40371704101565	-330.8372802734375	-1040.947509765625	50.22754669189456	-521.33056640625	-1044.869873046875	47.18818283081057	-356.841064453125	-1062.763671875	52.75550460815433	-490.4794616699219	-1084.013549804688	611.0362548828125	-224.2083435058593	-1117.09326171875	623.1171264648438	-602.4640502929688	-1008.894348144531	243.8458557128907	-242.0256805419922	-1041.236572265625	243.4868927001953	-613.6052856445312	0	0	0	0	0	0	0	0	0	0	0	0	-1043.81298828125	782.20947265625	-353.4696960449218	-1066.872802734375	784.0403442382812	-467.1604919433593	0.265788733959198	-11.73260593414307	1.391079664230346	0.265788733959198	11.73260593414307	-1.391079664230346	0.2174103260040283	-44.06381225585938	-13.0512809753418	1.22783362865448	-26.41534805297852	-9.304883956909181	18.83343887329102	4.848447799682617	3.232660531997681	14.55684947967529	-9.709227561950684	9.594686508178711	38.00640487670898	-33.9706916809082	-2.295579195022585	34.37569427490234	-30.2205638885498	-7.097287178039553	15.38495540618896	-2.567438125610352	-1.283787250518799	15.16562938690186	5.110189437866211	0.4126580655574802	-1.167859910916667e-15	-4.887839062680906e-31	7.982446965253999e-15	3.975693398236888e-16	-2.525700502256804e-31	4.124781943684163e-15	15.19203662872314	0	0	15.0364294052124	0	0	-11.6217622756958	8.167062759399414	1.768950819969178	-11.6217622756958	-8.167062759399414	-1.768950819969178	4.535866737365723	6.688468456268311	-3.59311032295227	4.535866737365723	-6.688468456268311	3.59311032295227	-9.915261268615723	-10.84242916107178	-18.56648254394531	39.50236892700195	-1.380360777937517e-12	1.590277359294671e-15	16.30113220214844	130.003173828125	13.5451192855835	-7.990522861480713	1.419648766517641	-25.04597473144531	36.43055725097656	-1.932187049247247e-12	-1.192708045940964e-15	19.06485366821289	132.8629913330078	0.7808987498283467	5.102172374725342	5.203031539916992	1.782749056816101	5.102172374725342	-5.203031539916992	-1.782749056816101	6.412989616394043	-2.905215740203857	-0.5807269215583803	6.412989616394043	2.905215740203857	0.5807269215583803	0	0	0	0	0	0	0	0	0	0	0	0	0	0	0	0	0	0	
116	0.7666666666666667	-1142.19677734375	1435.752319335938	-390.7496337890624	-1003.248107910156	1419.374877929688	-367.0729675292968	-1146.533935546875	1436.937622070312	-506.8672485351561	-993.22900390625	1420.273559570312	-515.6447753906249	-967.0890502929688	1273.557250976562	-446.2644958496093	-914.9237060546875	1094.60546875	-443.5900268554687	-1097.05517578125	1209.56591796875	-432.3052368164062	-1128.474731445312	1156.016967773438	-427.5688781738281	-932.582275390625	1175.323974609375	-542.4921264648436	-1043.337280273438	1262.688232421875	-315.6442871093749	-979.325927734375	1047.774780273438	-219.0540771484374	-968.4075927734375	974.6351318359375	-189.5914764404296	-984.6192626953125	892.1612548828125	-145.4977874755859	-1030.297241210938	772.7747802734375	-89.3405380249023	-1085.807495117188	777.2162475585938	-127.4400329589843	-1117.051025390625	719.901123046875	-82.38018798828121	-1060.756591796875	1247.2109375	-564.8118896484374	-1048.797241210938	1072.9150390625	-652.2407226562499	-1026.491821289062	953.8364868164062	-704.5767211914061	-1086.249633789062	824.2998657226562	-756.0506591796875	-1097.775146484375	744.021484375	-775.3721313476562	-1140.06103515625	740.1536254882812	-722.9849243164062	-1181.184692382812	692.250244140625	-767.597900390625	-915.4022827148438	874.8809204101562	-428.6008300781249	-1072.256713867188	870.3824462890625	-277.8202514648437	-1122.971069335938	876.116455078125	-521.2238159179688	-1128.486083984375	585.8573608398438	-242.2492980957031	-1079.881591796875	474.0578918457031	-229.6061859130859	-1203.32373046875	531.5350341796875	-275.8512268066406	-1033.337890625	216.9936981201172	-282.1268005371094	-950.4197387695312	148.6256408691407	-342.1723022460938	-1062.198974609375	131.4157409667969	-254.091064453125	-973.77783203125	41.81737899780276	-367.9754638671875	-1083.105590820312	41.33766555786134	-262.2193298339844	-1132.99072265625	605.7064819335938	-592.31298828125	-1057.659057617188	506.7932128906251	-585.009033203125	-1199.015869140625	533.2835693359375	-583.2332763671875	-1091.385375976562	266.0239562988282	-587.1854248046875	-983.0672607421875	217.3168640136719	-562.1812744140625	-1118.087768554688	175.506576538086	-582.3790893554688	-981.8561401367188	44.98569107055667	-500.0072937011719	-1123.40673828125	41.92271804809574	-570.3576049804688	-1148.050048828125	432.4830017089844	-267.107421875	-1163.98583984375	421.5443420410156	-366.7312622070312	-994.1901245117188	49.63135528564455	-304.8545532226562	-1044.88720703125	47.15645980834963	-356.8611755371094	-1168.088745117188	423.0338745117188	-466.2982482910156	-1167.494995117188	438.7312011718751	-568.8908081054688	-1062.759765625	52.7543754577637	-490.4656372070312	-1019.122863769531	47.71069335937504	-552.1722412109375	-984.0330200195312	874.4021606445312	-423.1600341796874	-989.7120361328125	874.3445434570312	-421.9780883789062	-982.8500366210938	874.2684326171875	-417.4824829101562	-984.324462890625	932.3939819335938	-421.7333679199218	-1156.017944335938	427.013671875	-316.9193420410156	-1167.791870117188	430.8825378417969	-517.5945434570312	-1019.538635253906	48.39390945434572	-330.8578796386719	-1040.94140625	50.23253250122073	-521.3189086914062	-1044.88720703125	47.15645980834963	-356.8611755371094	-1062.759765625	52.7543754577637	-490.4656372070312	-1084.100341796875	610.9921875	-224.2138671875	-1117.090087890625	623.1101684570312	-602.4520874023438	-1008.911499023438	243.8456420898438	-242.068862915039	-1041.248291015625	243.4796752929688	-613.6156616210938	0	0	0	0	0	0	0	0	0	0	0	0	-1043.881591796875	782.16943359375	-353.4244384765624	-1066.995361328125	784.0272827148438	-467.1038208007812	0.2880257666110992	-11.75937271118164	1.409462094306945	0.2880257666110992	11.75937271118164	-1.409462094306945	0.2003383636474609	-44.05912780761719	-13.06753826141358	1.223118901252747	-26.41323089599609	-9.304026603698732	18.85446929931641	4.892012596130371	3.224545478820801	14.56186771392822	-9.782858848571777	9.601057052612305	38.00279235839844	-33.99832916259766	-2.29049348831177	34.37543869018555	-30.17824745178223	-7.093712806701662	15.39747428894043	-2.557587862014771	-1.282179236412049	15.17990398406982	5.113218307495117	0.4138881862163547	1.04361955343313e-15	-3.180554718589511e-15	6.671710489706542e-15	-1.987846778527783e-15	4.770832183763384e-15	-1.41634073176286e-15	15.19576358795166	0	0	15.04981994628906	0	0	-11.62816905975342	8.109153747558594	1.810343146324158	-11.62816905975342	-8.109153747558594	-1.810343146324158	4.509198665618896	6.770902156829834	-3.640364408493042	4.509198665618896	-6.770902156829834	3.640364408493042	-9.954007148742676	-10.82254791259765	-18.55447006225586	39.55099105834961	-1.377180162444314e-12	3.180554718589426e-15	16.3054256439209	130.0267333984375	13.53374195098878	-7.946719169616699	1.408325195312502	-25.05795097351074	36.39397811889648	1.431249528074073e-14	-3.975693398236879e-16	19.02776718139648	132.9469299316406	0.8733437657356343	5.098937034606934	5.149028301239014	1.818432211875916	5.098937034606934	-5.149028301239014	-1.818432211875916	6.420660018920898	-2.900130748748779	-0.5857986211776736	6.420660018920898	2.900130748748779	0.5857986211776736	0	0	0	0	0	0	0	0	0	0	0	0	0	0	0	0	0	0	
